HIERARCHY
ROOT RootJoint
{
    OFFSET   0.000000   0.000000   0.000000
    CHANNELS 6 Xposition Yposition Zposition Xrotation Yrotation Zrotation
    JOINT lHip
    {
        OFFSET   0.100000  -0.051395   0.000000
        CHANNELS 3 Xrotation Yrotation Zrotation
        JOINT lKnee
        {
            OFFSET   0.000000  -0.410000   0.000000
            CHANNELS 3 Xrotation Yrotation Zrotation
            JOINT lAnkle
            {
                OFFSET   0.000000  -0.390000   0.000000
                CHANNELS 3 Xrotation Yrotation Zrotation
                JOINT lToeJoint
                {
                    OFFSET   0.000000  -0.050000   0.130000
                    CHANNELS 3 Xrotation Yrotation Zrotation
                    End Site
                    {
                        OFFSET   0.010000   0.002000   0.060000
                    }
                }
            }
        }
    }
    JOINT rHip
    {
        OFFSET  -0.100000  -0.051395   0.000000
        CHANNELS 3 Xrotation Yrotation Zrotation
        JOINT rKnee
        {
            OFFSET   0.000000  -0.410000   0.000000
            CHANNELS 3 Xrotation Yrotation Zrotation
            JOINT rAnkle
            {
                OFFSET   0.000000  -0.390000   0.000000
                CHANNELS 3 Xrotation Yrotation Zrotation
                JOINT rToeJoint
                {
                    OFFSET   0.000000  -0.050000   0.130000
                    CHANNELS 3 Xrotation Yrotation Zrotation
                    End Site
                    {
                        OFFSET  -0.010000   0.002000   0.060000
                    }
                }
            }
        }
    }
    JOINT pelvis_lowerback
    {
        OFFSET   0.000000   0.093605   0.000000
        CHANNELS 3 Xrotation Yrotation Zrotation
        JOINT lowerback_torso
        {
            OFFSET   0.000000   0.100000   0.000000
            CHANNELS 3 Xrotation Yrotation Zrotation
            JOINT torso_head
            {
                OFFSET   0.000000   0.282350   0.000000
                CHANNELS 3 Xrotation Yrotation Zrotation
                End Site
                {
                    OFFSET   0.000000   0.192650   0.000000
                }
            }
            JOINT lTorso_Clavicle
            {
                OFFSET   0.001000   0.157500   0.000000
                CHANNELS 3 Xrotation Yrotation Zrotation
                JOINT lShoulder
                {
                    OFFSET   0.117647   0.000000   0.000000
                    CHANNELS 3 Xrotation Yrotation Zrotation
                    JOINT lElbow
                    {
                        OFFSET   0.245000   0.000000   0.000000
                        CHANNELS 3 Xrotation Yrotation Zrotation
                        JOINT lWrist
                        {
                            OFFSET   0.240000   0.000000   0.000000
                            CHANNELS 3 Xrotation Yrotation Zrotation
                            End Site
                            {
                                OFFSET   0.116353  -0.002500   0.000000
                            }
                        }
                    }
                }
            }
            JOINT rTorso_Clavicle
            {
                OFFSET  -0.001000   0.157500   0.000000
                CHANNELS 3 Xrotation Yrotation Zrotation
                JOINT rShoulder
                {
                    OFFSET  -0.117647   0.000000   0.000000
                    CHANNELS 3 Xrotation Yrotation Zrotation
                    JOINT rElbow
                    {
                        OFFSET  -0.245000   0.000000   0.000000
                        CHANNELS 3 Xrotation Yrotation Zrotation
                        JOINT rWrist
                        {
                            OFFSET  -0.240000   0.000000   0.000000
                            CHANNELS 3 Xrotation Yrotation Zrotation
                            End Site
                            {
                                OFFSET  -0.116353  -0.002500   0.000000
                            }
                        }
                    }
                }
            }
        }
    }
}
MOTION
Frames: 15
Frame Time:   0.010000
  1.883079   0.865368  -0.169609  73.872211 -79.708908  82.901538 -25.926232  -4.481609 -12.630423  -0.347820   0.000000   0.000000  12.716665  21.325608  -9.488658  11.079200   0.000000   0.000000   4.206614 -18.498675 -10.353131  32.415020   0.000000   0.000000   5.176338   0.539697  32.889080  19.519600   0.000000   0.000000 -11.599186   6.448223 -11.102736  11.738938  -3.106592  -0.066021 -39.915135 -28.110877  -8.410630  17.431071  18.597493  -4.031380  -3.046786 -18.596493 -74.766036   0.000000  -3.511460   0.000000 -15.580462  -6.511962 -24.529381  15.377957  -9.891781   1.635305 -42.250060  49.537991  83.798391  -0.000100  32.785260   0.000000 -13.202184   2.237276  -2.399041
  1.865990   0.868067  -0.164988  73.934882 -79.802783  84.200045 -24.908529  -4.689459 -14.093461  -0.452700   0.000000   0.000000  12.120574  21.682362  -8.502684  12.230900   0.000000   0.000000   1.543214 -19.225619 -13.265204  36.668900   0.000000   0.000000   9.847893   1.312556  32.402588  19.519600   0.000000   0.000000 -11.432984   6.363683 -11.403614  11.133832  -3.314990  -0.950848 -39.340157 -27.919758  -8.353920  17.455905  18.570733  -3.870983  -3.658668 -18.708249 -75.157370   0.000000  -3.642260   0.000000 -15.545053  -6.542911 -24.589271  15.462051 -10.234299   1.495107 -40.368584  49.234826  83.528180  -0.000100  32.693280   0.000000 -12.945283   1.654663  -1.951802
  1.849598   0.870695  -0.160999  73.254163 -79.837412  84.544301 -24.059105  -5.229083 -15.375165  -0.441340   0.000000   0.000000  11.302311  22.213848  -7.795049  12.972700   0.000000   0.000000  -1.156850 -19.362130 -15.758138  41.013860   0.000000   0.000000  14.399877   1.273258  31.575901  19.519600   0.000000   0.000000 -11.170791   6.166291 -11.666290  10.432368  -3.568327  -1.659467 -38.880342 -27.681943  -8.372800  17.463694  18.535890  -3.658582  -4.395091 -18.851365 -75.614055   0.000000  -3.870500   0.000000 -15.521940  -6.522080 -24.613581  15.493756 -10.582886   1.239265 -38.439041  48.850255  83.289942  -0.000100  32.625080   0.000000 -12.327072   0.769543  -1.748896
  1.833670   0.873380  -0.157621  72.007800 -79.851100  84.093200 -23.232400  -6.111900 -16.434300  -0.575900   0.000000   0.000000  10.580100  22.980400  -7.314100  13.321100   0.000000   0.000000  -3.813900 -19.101000 -17.799000  45.259600   0.000000   0.000000  18.845400   0.782000  31.913800  19.519600   0.000000   0.000000 -10.872800   5.935000 -11.829900   9.776100  -3.830400  -2.268800 -38.545503 -27.505115  -8.480841  17.427700  18.444200  -3.391400  -5.262300 -19.037000 -76.071600   0.000000  -4.201000   0.000000 -15.546900  -6.520900 -24.633600  15.531600 -11.028100   1.089800 -36.450000  48.669200  82.843200  -0.000100  32.478800   0.000000 -11.760700   0.040900  -1.453800
  1.818112   0.876011  -0.155168  70.664988 -79.866683  83.221048 -22.188563  -6.662171 -17.109158  -0.857800   0.000000   0.000000   9.883536  23.252922  -7.067509  13.772880   0.000000   0.000000  -6.226616 -18.297894 -19.184971  49.184040   0.000000   0.000000  23.033712  -0.989740  34.532012  19.519600   0.000000   0.000000 -10.665336   5.704535 -11.872483   9.333003  -4.080608  -2.672373 -38.448385 -27.289633  -8.666106  17.250119  18.239322  -3.020591  -6.207611 -19.144285 -76.579301   0.000000  -4.613540   0.000000 -15.635534  -6.578962 -24.625561  15.513691 -11.482552   0.922593 -34.607619  48.333358  82.453541  -0.000100  32.122380   0.000000 -10.871102  -0.615929  -1.088193
  1.803397   0.878339  -0.153432  69.850249 -79.860346  82.556670 -21.046628  -6.420549 -17.391745  -0.949400   0.000000   0.000000   9.043411  22.653507  -6.725729  14.842920   0.000000   0.000000  -8.637420 -17.273772 -20.021953  53.060280   0.000000   0.000000  26.591532  -3.721852  37.087272  19.519600   0.000000   0.000000 -10.387266   5.413844 -11.913231   8.846739  -4.279958  -2.621457 -38.558206 -26.936765  -8.973186  17.113306  18.066686  -2.791538  -7.252168 -19.603074 -77.140291   0.000000  -4.982500   0.000000 -15.793788  -6.810695 -24.428895  15.567633 -11.867993   0.617113 -32.841147  47.956300  81.946385  -0.000100  31.780340   0.000000  -9.947456  -1.299463  -0.847319
  1.788729   0.880484  -0.151587  69.484995 -79.929278  82.348197 -19.645040  -5.571180 -17.654061  -1.074260   0.000000   0.000000   8.238622  21.522894  -6.371131  15.040920   0.000000   0.000000 -11.002545 -16.193383 -20.774499  56.787180   0.000000   0.000000  27.938828  -6.930194  39.912718  19.519600   0.000000   0.000000 -10.161776   5.165215 -11.946239   8.561093  -4.449689  -2.544721 -38.822413 -26.546335  -9.303257  16.906706  17.907751  -2.552707  -8.416618 -19.953475 -77.719978   0.000000  -5.412940   0.000000 -15.949377  -7.027449 -24.376462  15.639995 -12.257789   0.355485 -31.194830  47.694389  81.348179  -0.000100  31.273940   0.000000  -9.146766  -1.857607  -0.674977
  1.774150   0.882552  -0.149867  69.651412 -80.059583  82.628933 -18.072874  -4.355186 -17.851020  -1.231020   0.000000   0.000000   7.472531  20.134262  -5.934914  15.046800   0.000000   0.000000 -13.266085 -14.992860 -21.340121  60.212340   0.000000   0.000000  27.095044  -9.850480  41.474253  19.519600   0.000000   0.000000 -10.001800   4.954598 -11.955850   8.463202  -4.598452  -2.439193 -39.127291 -26.110546  -9.542458  16.573394  17.784324  -2.319181  -9.561554 -20.390688 -78.258249   0.000000  -5.894380   0.000000 -16.219700  -7.337529 -24.319645  15.725666 -12.582148   0.208374 -29.575882  47.456780  80.571827  -0.000100  30.668220   0.000000  -8.414846  -2.388589  -0.570763
  1.759377   0.884539  -0.148391  70.310700 -80.274900  83.319600 -16.473200  -3.457700 -17.954600  -1.474600   0.000000   0.000000   6.718200  19.139500  -5.432100  15.047200   0.000000   0.000000 -15.343100 -13.717800 -21.644400  63.139400   0.000000   0.000000  25.156400 -11.995200  40.027400  19.519600   0.000000   0.000000 -10.060300   4.812600 -11.939800   8.819000  -4.722900  -2.238100 -39.570933 -25.673861  -9.685048  16.199400  17.641700  -2.099000 -10.866500 -20.815400 -78.804100   0.000000  -6.474800   0.000000 -16.513000  -7.567800 -24.217200  15.687900 -12.802700   0.088200 -27.954100  47.148500  79.685500  -0.000100  29.931700   0.000000  -7.745900  -2.681600  -0.433900
  1.744892   0.886461  -0.147383  70.958333 -80.487629  83.834990 -15.045523  -2.992285 -17.901722  -1.648620   0.000000   0.000000   5.932000  18.552193  -4.794505  15.047200   0.000000   0.000000 -17.297862 -12.385697 -21.545874  65.601020   0.000000   0.000000  22.669606 -13.477267  37.230973  19.519600   0.000000   0.000000  -9.989214   4.589631 -11.894784   8.991577  -4.872300  -1.910992 -39.861958 -25.198272  -9.717820  15.991778  17.538233  -2.014542 -12.274580 -21.353447 -79.217116   0.000000  -7.095880   0.000000 -16.659058  -7.731263 -24.087495  15.856191 -12.935202   0.113728 -26.369410  46.734191  78.593940  -0.000100  29.176280   0.000000  -7.369976  -2.864809  -0.518141
  1.730830   0.888344  -0.146798  72.008766 -80.676954  84.607335 -13.812789  -2.669762 -17.692712  -1.633660   0.000000   0.000000   5.014874  18.167368  -3.997312  15.047200   0.000000   0.000000 -19.200403 -10.943771 -21.130422  67.676140   0.000000   0.000000  20.281328 -14.607907  35.293015  19.519600   0.000000   0.000000  -9.919426   4.379284 -11.812990   9.164451  -4.994935  -1.498004 -40.116589 -24.730584  -9.689019  15.779739  17.382115  -1.931985 -13.729681 -21.936077 -79.581915   0.000000  -7.722160   0.000000 -16.874834  -7.961398 -23.879543  16.006921 -12.999798   0.227475 -24.742637  46.169598  77.378155  -0.000100  28.353800   0.000000  -7.209247  -2.909479  -0.668021
  1.715941   0.890224  -0.146140  76.328380 -80.792674  88.619161 -12.489851  -1.800586 -17.405729  -1.781140   0.000000   0.000000   4.072270  17.677048  -3.075029  15.047200   0.000000   0.000000 -21.074801  -9.015161 -20.438238  69.272800   0.000000   0.000000  18.301424 -15.456700  33.518250  19.519600   0.000000   0.000000 -10.292910   4.517718 -11.673344   9.631281  -4.870403  -1.049214 -40.327163 -24.278835  -9.653038  15.675537  17.196069  -1.910053 -15.339013 -22.717864 -79.908473   0.000000  -8.353480   0.000000 -17.089967  -7.978059 -23.629308  16.131245 -13.270211   0.473112 -23.300159  45.826881  76.155203  -0.000100  27.223400   0.000000  -7.289749  -2.853109  -0.871649
  1.700758   0.892074  -0.145261  83.148972 -80.717308  95.202874 -11.171243  -0.666600 -17.171500  -2.127940   0.000000   0.000000   3.174228  17.352121  -2.128084  15.047200   0.000000   0.000000 -23.076420  -6.708650 -19.606701  70.524280   0.000000   0.000000  16.528122 -16.049570  32.176373  19.519600   0.000000   0.000000 -10.908327   4.908210 -11.499357  10.160997  -4.572725  -0.729034 -40.370764 -23.868312  -9.518382  15.488017  16.951087  -1.804918 -16.897531 -23.295389 -80.218736   0.000000  -9.011600   0.000000 -16.979242  -7.985760 -23.483815  16.509150 -13.485595   0.874148 -22.004870  45.497212  74.779498  -0.000100  25.973480   0.000000  -7.364996  -2.608390  -1.113866
  1.685893   0.893767  -0.144777  87.957700 -80.579500  99.655100  -9.931200   0.084500 -16.847600  -2.456000   0.000000   0.000000   2.407800  17.122200  -1.575200  15.047200   0.000000   0.000000 -24.981000  -4.737900 -18.575000  71.328200   0.000000   0.000000  14.898200 -16.594900  31.259600  19.519600   0.000000   0.000000 -11.439700   5.162100 -11.301600  10.680200  -4.367300  -0.313000 -40.444189 -23.538860  -9.468123  15.371700  16.648400  -1.719000 -18.589400 -24.192900 -80.456100   0.000000  -9.538800   0.000000 -17.024100  -8.157800 -23.329700  16.951500 -13.609000   1.179500 -20.858700  44.544200  73.585300  -0.000100  24.744200   0.000000  -7.458200  -2.129200  -1.440900
  1.671406   0.895309  -0.144980  90.735695 -80.472506 101.869397  -8.754115   0.567518 -16.308780  -2.704260   0.000000   0.000000   1.728143  16.824578  -1.298110  15.047200   0.000000   0.000000 -26.773620  -3.228258 -17.270008  71.683800   0.000000   0.000000  12.666827 -17.266333  29.657186  20.760340   0.000000   0.000000 -11.826932   5.231514 -11.095482  11.103876  -4.270128   0.266809 -40.460874 -23.285246  -9.451361  15.310274  16.328205  -1.630872 -20.317938 -25.418004 -80.583820   0.000000 -10.088020   0.000000 -17.165959  -8.201312 -23.189560  17.197343 -13.782513   1.445032 -19.753475  43.182332  72.616639  -0.000100  23.540960   0.000000  -7.626344  -2.013440  -1.857634
